<svg id="visual" viewBox="0 0 1280 900" width="1280" height="900" xmlns="http://www.w3.org/2000/svg" xmlns:xlink="http://www.w3.org/1999/xlink" version="1.1"><path d="M0 19L128 19L128 37L256 37L256 100L384 100L384 28L512 28L512 73L640 73L640 82L768 82L768 100L896 100L896 37L1024 37L1024 64L1152 64L1152 19L1280 19L1280 82L1280 0L1280 0L1152 0L1152 0L1024 0L1024 0L896 0L896 0L768 0L768 0L640 0L640 0L512 0L512 0L384 0L384 0L256 0L256 0L128 0L128 0L0 0Z" fill="#b0235f"></path><path d="M0 118L128 118L128 118L256 118L256 118L384 118L384 100L512 100L512 127L640 127L640 145L768 145L768 226L896 226L896 82L1024 82L1024 127L1152 127L1152 73L1280 73L1280 145L1280 80L1280 17L1152 17L1152 62L1024 62L1024 35L896 35L896 98L768 98L768 80L640 80L640 71L512 71L512 26L384 26L384 98L256 98L256 35L128 35L128 17L0 17Z" fill="#b72d60"></path><path d="M0 262L128 262L128 226L256 226L256 217L384 217L384 208L512 208L512 181L640 181L640 181L768 181L768 352L896 352L896 118L1024 118L1024 253L1152 253L1152 118L1280 118L1280 208L1280 143L1280 71L1152 71L1152 125L1024 125L1024 80L896 80L896 224L768 224L768 143L640 143L640 125L512 125L512 98L384 98L384 116L256 116L256 116L128 116L128 116L0 116Z" fill="#be3761"></path><path d="M0 289L128 289L128 244L256 244L256 235L384 235L384 244L512 244L512 199L640 199L640 208L768 208L768 397L896 397L896 172L1024 172L1024 298L1152 298L1152 190L1280 190L1280 217L1280 206L1280 116L1152 116L1152 251L1024 251L1024 116L896 116L896 350L768 350L768 179L640 179L640 179L512 179L512 206L384 206L384 215L256 215L256 224L128 224L128 260L0 260Z" fill="#c54062"></path><path d="M0 298L128 298L128 253L256 253L256 253L384 253L384 298L512 298L512 280L640 280L640 271L768 271L768 424L896 424L896 235L1024 235L1024 316L1152 316L1152 253L1280 253L1280 280L1280 215L1280 188L1152 188L1152 296L1024 296L1024 170L896 170L896 395L768 395L768 206L640 206L640 197L512 197L512 242L384 242L384 233L256 233L256 242L128 242L128 287L0 287Z" fill="#cb4963"></path><path d="M0 343L128 343L128 325L256 325L256 334L384 334L384 361L512 361L512 361L640 361L640 298L768 298L768 460L896 460L896 289L1024 289L1024 352L1152 352L1152 298L1280 298L1280 289L1280 278L1280 251L1152 251L1152 314L1024 314L1024 233L896 233L896 422L768 422L768 269L640 269L640 278L512 278L512 296L384 296L384 251L256 251L256 251L128 251L128 296L0 296Z" fill="#d15165"></path><path d="M0 631L128 631L128 442L256 442L256 451L384 451L384 631L512 631L512 532L640 532L640 397L768 397L768 667L896 667L896 541L1024 541L1024 433L1152 433L1152 469L1280 469L1280 451L1280 287L1280 296L1152 296L1152 350L1024 350L1024 287L896 287L896 458L768 458L768 296L640 296L640 359L512 359L512 359L384 359L384 332L256 332L256 323L128 323L128 341L0 341Z" fill="#d75a66"></path><path d="M0 802L128 802L128 622L256 622L256 577L384 577L384 676L512 676L512 676L640 676L640 604L768 604L768 694L896 694L896 676L1024 676L1024 559L1152 559L1152 640L1280 640L1280 631L1280 449L1280 467L1152 467L1152 431L1024 431L1024 539L896 539L896 665L768 665L768 395L640 395L640 530L512 530L512 629L384 629L384 449L256 449L256 440L128 440L128 629L0 629Z" fill="#dd6368"></path><path d="M0 820L128 820L128 694L256 694L256 640L384 640L384 739L512 739L512 694L640 694L640 694L768 694L768 739L896 739L896 757L1024 757L1024 604L1152 604L1152 703L1280 703L1280 676L1280 629L1280 638L1152 638L1152 557L1024 557L1024 674L896 674L896 692L768 692L768 602L640 602L640 674L512 674L512 674L384 674L384 575L256 575L256 620L128 620L128 800L0 800Z" fill="#e36b6a"></path><path d="M0 901L128 901L128 901L256 901L256 901L384 901L384 901L512 901L512 901L640 901L640 901L768 901L768 901L896 901L896 901L1024 901L1024 901L1152 901L1152 901L1280 901L1280 901L1280 674L1280 701L1152 701L1152 602L1024 602L1024 755L896 755L896 737L768 737L768 692L640 692L640 692L512 692L512 737L384 737L384 638L256 638L256 692L128 692L128 818L0 818Z" fill="#e8746c"></path></svg>